<svg width="751" height="113" viewBox="0 0 751 113" fill="none" xmlns="http://www.w3.org/2000/svg">
<path d="M27.3403 0.0839844V66.444C27.3403 73.08 28.9729 78.1887 32.2383 81.77C35.5036 85.3513 40.2963 87.142 46.6163 87.142C52.9363 87.142 57.7816 85.3513 61.1523 81.77C64.5229 78.1887 66.2083 73.08 66.2083 66.444V0.0839844H93.2263V66.286C93.2263 76.1873 91.1196 84.5613 86.9063 91.408C82.6929 98.2547 77.0049 103.416 69.8423 106.892C62.7849 110.368 54.8849 112.106 46.1423 112.106C37.3996 112.106 29.5523 110.421 22.6003 107.05C15.7536 103.574 10.3289 98.4127 6.32627 91.566C2.3236 84.614 0.322266 76.1873 0.322266 66.286V0.0839844H27.3403Z" fill="white"/>
<path d="M139.217 90.144H174.609V111H112.199V0.0839844H139.217V90.144Z" fill="white"/>
<path d="M267.285 0.0839844V21.73H237.897V111H210.879V21.73H181.491V0.0839844L267.285 0.0839844Z" fill="white"/>
<path d="M307.863 0.0839844V111H280.845V0.0839844H307.863Z" fill="white"/>
<path d="M453.053 0.0839844V111H426.035V44.482L401.229 111H379.425L354.461 44.324V111H327.443V0.0839844H359.359L390.485 76.872L421.295 0.0839844H453.053Z" fill="white"/>
<path d="M541.528 91.408H500.132L493.496 111H465.214L505.346 0.0839844H536.63L576.762 111H548.164L541.528 91.408ZM534.576 70.552L520.83 29.946L507.242 70.552H534.576Z" fill="white"/>
<path d="M668.766 0.0839844V21.73H639.378V111H612.36V21.73H582.972V0.0839844H668.766Z" fill="white"/>
<path d="M709.344 21.73V44.166H745.526V65.022H709.344V89.354H750.266V111H682.326V0.0839844H750.266V21.73H709.344Z" fill="white"/>
</svg>
